<svg xmlns="http://www.w3.org/2000/svg" xmlns:xlink="http://www.w3.org/1999/xlink" version="1.1" id="FMN" x="0px" y="0px" viewBox="0 0 311.3 80" style="enable-background:new 0 0 311.3 80;" xml:space="preserve">
<style type="text/css">
	.st0{fill:#8C1B3C;}
</style>
<g>
	<g>
		<path class="st0" d="M66.7,36.5v12.8h-2.8v-5.1H60v5.1h-2.8V36.5H60v5h3.9v-5C63.9,36.5,66.7,36.5,66.7,36.5z"/>
		<path class="st0" d="M76,46c0,2.1-0.6,3.5-4.3,3.5c-0.8,0-1.7,0-2.7-0.2v-2.6c0.8,0.1,1.6,0.2,2.5,0.2c1.3,0,1.6-0.2,1.6-1.4v-6.3    h-3.5v-2.6H76C76,36.5,76,46,76,46z"/>
		<path class="st0" d="M86.9,46.7v2.6h-7.8V36.5h7.8v2.6h-5v2.3h3.8V44h-3.8v2.6L86.9,46.7L86.9,46.7z"/>
		<path class="st0" d="M89.3,36.5h2.9l3.6,6.8l3.8-6.8h2.7v12.8h-2.8v-7.4l-2.6,4.9h-2l-2.6-4.9v7.4h-2.8L89.3,36.5L89.3,36.5z"/>
		<path class="st0" d="M105.5,36.5h2.9l3.6,6.8l3.8-6.8h2.7v12.8h-2.8v-7.4l-2.6,4.9h-2l-2.6-4.9v7.4h-2.8L105.5,36.5L105.5,36.5z"/>
		<path class="st0" d="M129.5,46.7v2.6h-7.8V36.5h7.8v2.6h-5v2.3h3.8V44h-3.8v2.6L129.5,46.7L129.5,46.7z"/>
		<path class="st0" d="M133.6,47.9l-2.3-11.4h3l1.8,10c0.1,0.3,0.1,0.4,0.5,0.4s0.4-0.1,0.5-0.4l1.8-10h3l-2.3,11.4    c-0.3,1.3-0.7,1.6-3,1.6S133.9,49.2,133.6,47.9L133.6,47.9z"/>
		<path class="st0" d="M156.1,46.6v2.7h-6.6v-3.4h-3.1l-0.7,3.4h-3l2.4-10.7c0.4-1.7,0.7-2,3.2-2h7.7v2.6h-3.7v2.4h2.7v2.5h-2.7v2.5    L156.1,46.6L156.1,46.6z M149.5,39.1h-0.9c-0.8,0-0.9,0.1-1,0.9l-0.7,3.3h2.6V39.1z"/>
		<path class="st0" d="M163,45.2l-1.6,0.7v3.4h-2.8V36.5h4.8c2.8,0,4.1,0.7,4.1,3.6v0.3c0,2.5-0.4,3.2-1.8,3.7l-0.1,0.1l2.6,5h-3.2    L163,45.2L163,45.2z M161.4,43l2.4-0.8c0.6-0.2,0.9-0.4,0.9-1.4v-0.3c0-1.1-0.3-1.4-1.2-1.4h-2.1V43L161.4,43z"/>
		<path class="st0" d="M170.5,36.5h2.4l4.3,7.1v-7.1h2.8v12.8h-2.4l-4.3-7v7h-2.8C170.5,49.3,170.5,36.5,170.5,36.5z"/>
		<path class="st0" d="M191.1,46.7v2.6h-7.8V36.5h7.8v2.6h-5v2.3h3.8V44h-3.8v2.6L191.1,46.7L191.1,46.7z"/>
		<path class="st0" d="M201.5,39.1h-3v10.2h-2.8V39.1h-3.2v-2.6h9L201.5,39.1L201.5,39.1z"/>
	</g>
	<g>
		<path class="st0" d="M22.1,60.3c-8.9-1-15.9-8.5-15.9-17.7c0-4.2,1.5-8.1,3.9-11.2l-2.7-2.7c-3.1,3.8-5,8.6-5,13.9    c0,11.3,8.7,20.6,19.7,21.6C22.1,64.2,22.1,60.3,22.1,60.3z"/>
		<path class="st0" d="M37.9,31.5c2.5,3.1,3.9,6.9,3.9,11.2c0,9.2-7,16.7-15.9,17.7v3.9C37,63.2,45.7,54,45.7,42.7    c0-5.3-1.9-10.1-5-13.9C40.6,28.8,37.9,31.5,37.9,31.5z"/>
		<path class="st0" d="M19.8,36.5v12.8H17v-5.1h-3.1v5.1h-2.8V36.5h2.8v5H17v-5C17,36.5,19.8,36.5,19.8,36.5z"/>
		<path class="st0" d="M26.8,46c0,2.1-0.6,3.5-4.3,3.5c-0.8,0-0.9,0-2-0.2v-2.6c0.8,0.1,0.8,0.2,1.8,0.2c1.3,0,1.6-0.2,1.6-1.4v-8.9    h2.8L26.8,46L26.8,46z"/>
		<path class="st0" d="M29.9,47.9l-2.3-11.4h3l1.8,10c0.1,0.3,0.1,0.4,0.5,0.4c0.4,0,0.4-0.1,0.5-0.4l1.8-10h3l-2.3,11.4    c-0.3,1.3-0.7,1.6-3,1.6S30.1,49.2,29.9,47.9L29.9,47.9z"/>
		<path class="st0" d="M33.4,15.7c0.6,0,0.9,0.3,0.9,0.7c0,0.2-0.1,0.5-0.3,0.7l-3.8,4.5h2.8l2.6-3c0.7-0.8,1-1.6,1-2.3    c0-1.5-1.3-2.7-3.1-2.7h-0.4v2.1L33.4,15.7L33.4,15.7z"/>
		<path class="st0" d="M14.6,15.7h0.3v-2.1h-0.4c-1.8,0-3.1,1.2-3.1,2.7c0,0.8,0.3,1.6,1,2.3l2.6,3h2.8L14,17.2    c-0.2-0.2-0.3-0.5-0.3-0.7C13.7,16,14.1,15.7,14.6,15.7L14.6,15.7z"/>
		<path class="st0" d="M19.1,15.7h2.5v-2.1h-2.4c-2,0-3.3,1.2-3.3,2.7c0,0.8,0.3,1.6,1,2.3l2.5,3h2.8l-3.8-4.5    c-0.2-0.2-0.3-0.5-0.3-0.7C18.1,16,18.5,15.7,19.1,15.7L19.1,15.7z"/>
		<path class="st0" d="M29,15.7c0.6,0,0.9,0.3,0.9,0.7c0,0.2-0.1,0.5-0.3,0.7l-3.8,4.5h2.8l2.5-3c0.6-0.8,1-1.6,1-2.3    c0-1.5-1.3-2.7-3.3-2.7h-2.4v2.1L29,15.7L29,15.7z"/>
		<rect x="22.9" y="13.6" class="st0" width="2.2" height="8.1"/>
		<rect x="15.7" y="23.1" class="st0" width="16.6" height="3.8"/>
		<circle class="st0" cx="24" cy="10.6" r="2"/>
		<polygon class="st0" points="23.5,5.4 22.2,5.4 22.2,6.4 23.5,6.4 23.5,7.6 24.6,7.6 24.6,6.4 25.9,6.4 25.9,5.4 24.6,5.4     24.6,4.2 23.5,4.2   "/>
	</g>
</g>
</svg>