<svg xmlns="http://www.w3.org/2000/svg" id="Lag_1" data-name="Lag 1" viewBox="0 0 357.05 495"><defs><style>.cls-1{fill:none;}.cls-2{fill:#772440;}</style></defs><path class="cls-1" d="M248.18,269.35A13.14,13.14,0,0,1,239.35,248l-2-2a16,16,0,0,0,10.84,26.18Z" transform="translate(-71.47 -1)"/><path class="cls-1" d="M259.84,248A13.14,13.14,0,0,1,251,269.35v2.85A16,16,0,0,0,261.86,246Z" transform="translate(-71.47 -1)"/><path class="cls-1" d="M246.48,251.72v9.45H244.4v-3.79h-2.28v3.79H240v-9.45h2.08v3.71h2.28v-3.71Z" transform="translate(-71.47 -1)"/><path class="cls-1" d="M251.67,258.74c0,1.54-.45,2.57-3.17,2.57a7.41,7.41,0,0,1-1.45-.14v-1.93a6.43,6.43,0,0,0,1.31.12c.93,0,1.21-.15,1.21-1.05v-6.59h2.1Z" transform="translate(-71.47 -1)"/><path class="cls-1" d="M253.92,260.16l-1.69-8.44h2.22l1.31,7.36c0,.2.08.27.36.27s.32-.07.37-.27l1.31-7.36H260l-1.69,8.44c-.19,1-.48,1.15-2.2,1.15S254.11,261.12,253.92,260.16Z" transform="translate(-71.47 -1)"/><path class="cls-1" d="M256.54,236.39c.43,0,.7.22.7.54a.85.85,0,0,1-.24.55l-2.78,3.28h2.07l1.9-2.25a2.62,2.62,0,0,0,.71-1.74,2.09,2.09,0,0,0-2.3-2h-.3v1.58Z" transform="translate(-71.47 -1)"/><path class="cls-1" d="M242.66,236.39h.23v-1.58h-.3a2.09,2.09,0,0,0-2.3,2,2.68,2.68,0,0,0,.72,1.74l1.9,2.25H245l-2.79-3.28a.83.83,0,0,1-.23-.55C242,236.61,242.22,236.39,242.66,236.39Z" transform="translate(-71.47 -1)"/><path class="cls-1" d="M245.93,236.39h1.8v-1.58H246c-1.49,0-2.44.86-2.44,2a2.68,2.68,0,0,0,.72,1.74l1.88,2.25h2.09l-2.79-3.28a.83.83,0,0,1-.23-.55C245.23,236.61,245.49,236.39,245.93,236.39Z" transform="translate(-71.47 -1)"/><path class="cls-1" d="M253.27,236.39c.43,0,.7.22.7.54a.85.85,0,0,1-.24.55L251,240.76H253l1.89-2.25a2.72,2.72,0,0,0,.71-1.74c0-1.1-.95-2-2.43-2h-1.74v1.58Z" transform="translate(-71.47 -1)"/><rect class="cls-1" x="177.33" y="233.81" width="1.59" height="5.95"/><rect class="cls-1" x="172" y="240.83" width="12.24" height="2.83"/><circle class="cls-1" cx="178.12" cy="231.61" r="1.51"/><polygon class="cls-1" points="177.72 227.76 176.74 227.76 176.74 228.53 177.72 228.53 177.72 229.42 178.52 229.42 178.52 228.53 179.5 228.53 179.5 227.76 178.52 227.76 178.52 226.87 177.72 226.87 177.72 227.76"/><path class="cls-2" d="M234.17,464.22a146.83,146.83,0,0,1-98.59-238.05l-22.49-22.49A177.72,177.72,0,0,0,71.47,318.21C71.47,411.47,143,488,234.17,496Z" transform="translate(-71.47 -1)"/><path class="cls-2" d="M364.42,226.17a146.83,146.83,0,0,1-98.6,238.05V496c91.18-8,162.71-84.53,162.71-177.79a177.77,177.77,0,0,0-41.61-114.53Z" transform="translate(-71.47 -1)"/><path class="cls-2" d="M215.19,267.29V372.84H192V330.47H166.49v42.37H143.26V267.29h23.23v41.46H192V267.29Z" transform="translate(-71.47 -1)"/><path class="cls-2" d="M273.1,345.69c0,17.2-5,28.66-35.29,28.66-6.93,0-7.69-.3-16.28-1.51V351.28c6.93.9,6.48,1.35,14.62,1.35,10.41,0,13.57-1.66,13.57-11.76V267.29H273.1Z" transform="translate(-71.47 -1)"/><path class="cls-2" d="M298.27,361.53l-18.84-94.24h24.73l14.62,82.18c.45,2.25.91,3,4.07,3s3.62-.76,4.08-3l14.62-82.18h24.73l-18.85,94.24c-2.11,10.71-5.43,12.82-24.58,12.82S300.39,372.24,298.27,361.53Z" transform="translate(-71.47 -1)"/><path class="cls-2" d="M327.48,96.15c4.85,0,7.83,2.42,7.83,6a9.26,9.26,0,0,1-2.61,6.14l-31.1,36.69h23.09l21.23-25.14c5.59-6.33,8-13,8-19.37,0-12.29-10.62-22-25.7-22h-3.37V96.15Z" transform="translate(-71.47 -1)"/><path class="cls-2" d="M172.53,96.15h2.62V78.46h-3.37c-15.08,0-25.69,9.68-25.69,22,0,6.33,2.6,13,8,19.37l21.23,25.14h23.09l-31.1-36.69a9.25,9.25,0,0,1-2.6-6.14C164.71,98.57,167.69,96.15,172.53,96.15Z" transform="translate(-71.47 -1)"/><path class="cls-2" d="M209,96.15H229.2V78.46H209.79c-16.58,0-27.19,9.68-27.19,22,0,6.33,2.61,13,8,19.37l21,25.14h23.27l-31.09-36.69a9.26,9.26,0,0,1-2.61-6.14C201.22,98.57,204.2,96.15,209,96.15Z" transform="translate(-71.47 -1)"/><path class="cls-2" d="M291,96.15c4.84,0,7.82,2.42,7.82,6a9.25,9.25,0,0,1-2.6,6.14l-31.1,36.69h23.27l21.05-25.14c5.4-6.33,8-13,8-19.37,0-12.29-10.61-22-27.18-22H270.81V96.15Z" transform="translate(-71.47 -1)"/><rect class="cls-2" x="169.64" y="77.46" width="17.78" height="66.48"/><rect class="cls-2" x="110.19" y="155.85" width="136.67" height="31.65"/><circle class="cls-2" cx="178.53" cy="52.98" r="16.89"/><polygon class="cls-2" points="174.09 9.9 163.11 9.9 163.11 18.54 174.09 18.54 174.09 28.44 182.97 28.44 182.97 18.54 193.95 18.54 193.95 9.9 182.97 9.9 182.97 0 174.09 0 174.09 9.9"/></svg>